<svg xmlns="http://www.w3.org/2000/svg" viewBox="0 0 512 512">
  <defs>
    <linearGradient id="grad" x1="0" x2="1">
      <stop offset="0%" stop-color="#1e90ff"/>
      <stop offset="100%" stop-color="#4f46e5"/>
    </linearGradient>
  </defs>
  <rect width="512" height="512" rx="96" fill="url(#grad)"/>
  <g transform="translate(96 96) scale(0.625)" fill="#fff">
    <path d="M160 0c-88.4 0-160 71.6-160 160s71.6 160 160 160 160-71.6 160-160S248.4 0 160 0zm0 288c-70.7 0-128-57.3-128-128S89.3 32 160 32s128 57.3 128 128-57.3 128-128 128z"/>
    <path d="M160 80c-44.2 0-80 35.8-80 80s35.8 80 80 80 80-35.8 80-80-35.8-80-80-80zm0 128c-26.5 0-48-21.5-48-48s21.5-48 48-48 48 21.5 48 48-21.5 48-48 48z"/>
  </g>
</svg>
<svg xmlns="http://www.w3.org/2000/svg" viewBox="0 0 512 512">
  <defs>
    <linearGradient id="g" x1="0" x2="1">
      <stop offset="0%" stop-color="#06b6d4"/>
      <stop offset="100%" stop-color="#6366f1"/>
    </linearGradient>
  </defs>
  <rect width="512" height="512" rx="96" fill="url(#g)"/>
  <g transform="translate(64 64)" fill="#fff">
    <path d="M160 32c-70.7 0-128 57.3-128 128s57.3 128 128 128 128-57.3 128-128S230.7 32 160 32zm0 224c-53 0-96-43-96-96s43-96 96-96 96 43 96 96-43 96-96 96z"/>
    <path d="M160 96c-35.3 0-64 28.7-64 64s28.7 64 64 64 64-28.7 64-64-28.7-64-64-64zm0 96c-17.7 0-32-14.3-32-32s14.3-32 32-32 32 14.3 32 32-14.3 32-32 32z"/>
  </g>
</svg>
